<svg width="160" height="48" fill="none" xmlns="http://www.w3.org/2000/svg"><path fill-rule="evenodd" clip-rule="evenodd" d="M91.634 36.657c-5.59 4.296-13.69 6.593-20.662 6.593-9.321.048-18.324-3.536-25.245-10.05-.526-.495-.053-1.169.57-.785C53.992 37 62.7 39.407 71.558 39.4a48.414 48.414 0 0019.265-4.108c.947-.415 1.736.651.811 1.364z" fill="#F90"/><path fill-rule="evenodd" clip-rule="evenodd" d="M93.956 33.881c-.751-.948-4.719-.447-6.522-.227-.548.07-.63-.423-.135-.784 3.193-2.352 8.43-1.67 9.016-.886.586.784-.157 6.272-3.163 8.89-.458.4-.902.188-.691-.345.668-1.756 2.179-5.691 1.502-6.648" fill="#F90"/><path fill-rule="evenodd" clip-rule="evenodd" d="M87.501 17.21v-2.215a.549.549 0 01.335-.519.534.534 0 01.213-.04h9.75a.544.544 0 01.535.338c.029.07.043.145.042.221v1.898a3.19 3.19 0 01-.75 1.383l-5.047 7.304c1.93-.109 3.855.306 5.572 1.202a1.009 1.009 0 01.517.854v2.329c0 .317-.352.695-.75.499a11.177 11.177 0 00-10.32 0c-.337.189-.69-.182-.69-.507V27.75c-.035-.53.09-1.057.36-1.512l5.888-8.476h-5.1a.535.535 0 01-.514-.338.547.547 0 01-.04-.214zM51.87 30.925h-3a.56.56 0 01-.532-.507v-15.37a.565.565 0 01.354-.514.55.55 0 01.215-.038h2.775a.56.56 0 01.57.5v2.018h.053a3.947 3.947 0 011.468-2.1 3.893 3.893 0 012.44-.743c1.86 0 3 .907 3.862 2.843a4.42 4.42 0 011.343-1.84 4.354 4.354 0 014.327-.672c.716.28 1.347.745 1.83 1.348.944 1.292.75 3.175.75 4.823v9.7a.56.56 0 01-.57.552h-3a.57.57 0 01-.54-.552v-8.15c.044-.961.016-1.924-.083-2.88a1.56 1.56 0 00-.577-1.001 1.536 1.536 0 00-1.103-.323 1.972 1.972 0 00-1.777 1.262 9.502 9.502 0 00-.27 2.942v8.15a.57.57 0 01-.361.515.56.56 0 01-.217.037h-3a.56.56 0 01-.54-.552v-8.15c0-1.716.278-4.234-1.83-4.234-2.107 0-2.055 2.457-2.055 4.234v8.15a.56.56 0 01-.57.552m54.951-16.754c4.403 0 6.795 3.818 6.795 8.672 0 4.687-2.64 8.407-6.795 8.407-4.335 0-6.69-3.818-6.69-8.573 0-4.756 2.408-8.506 6.69-8.506zm0 3.138c-2.19 0-2.325 3.024-2.325 4.884 0 1.86 0 5.89 2.303 5.89 2.302 0 2.407-3.237 2.407-5.21a14.239 14.239 0 00-.442-4.075 1.87 1.87 0 00-.688-1.127 1.84 1.84 0 00-1.255-.385m12.51 13.639h-3a.564.564 0 01-.533-.552V14.995a.57.57 0 01.578-.499h2.752a.559.559 0 01.533.431v2.336h.052c.833-2.102 1.995-3.1 4.05-3.1a3.865 3.865 0 012.008.422c.62.32 1.144.8 1.517 1.393.75 1.232.75 3.304.75 4.786v9.677a.568.568 0 01-.57.484h-3a.562.562 0 01-.525-.484v-8.316c0-1.679.195-4.143-1.86-4.143a1.942 1.942 0 00-1.717 1.232 6.922 6.922 0 00-.473 2.91v8.317a.568.568 0 01-.577.552m-39.569-7.409a5.9 5.9 0 01-.555 3.175c-.19.393-.483.726-.846.966s-.783.376-1.216.395c-1.14 0-1.808-.877-1.808-2.17 0-2.548 2.25-3.024 4.425-3.024v.658zm3 7.296a.612.612 0 01-.698.068 7.257 7.257 0 01-1.71-1.996c-1.627 1.678-2.782 2.177-4.897 2.177-2.497 0-4.447-1.55-4.447-4.665a5.11 5.11 0 01.816-2.956 5.049 5.049 0 012.356-1.943c1.613-.71 3.863-.84 5.587-1.036v-.393a3.806 3.806 0 00-.374-2.117 1.982 1.982 0 00-1.665-.756 2.237 2.237 0 00-1.53.445 2.27 2.27 0 00-.855 1.355.636.636 0 01-.54.468l-2.88-.31a.522.522 0 01-.441-.413.532.532 0 01-.002-.214c.66-3.523 3.818-4.59 6.645-4.59a6.715 6.715 0 014.5 1.513c1.447 1.36 1.312 3.175 1.312 5.148v4.665a4.146 4.146 0 001.118 2.782.562.562 0 010 .757c-.6.506-1.68 1.459-2.25 1.988m-41.999-7.273a5.901 5.901 0 01-.555 3.175 2.42 2.42 0 01-.842.965c-.361.24-.78.376-1.213.396-1.14 0-1.807-.877-1.807-2.17 0-2.548 2.25-3.024 4.417-3.024v.658zm3 7.296a.62.62 0 01-.705.068 7.348 7.348 0 01-1.702-1.996c-1.628 1.678-2.783 2.177-4.898 2.177-2.497.008-4.447-1.542-4.447-4.657a5.119 5.119 0 01.815-2.954 5.056 5.056 0 012.35-1.945c1.612-.711 3.87-.84 5.587-1.036v-.393a3.808 3.808 0 00-.36-2.125 1.992 1.992 0 00-1.642-.824 2.236 2.236 0 00-1.535.442 2.27 2.27 0 00-.858 1.358.63.63 0 01-.532.536l-2.888-.31a.529.529 0 01-.438-.414.543.543 0 01-.004-.213c.668-3.523 3.825-4.59 6.645-4.59a6.715 6.715 0 014.5 1.513c1.447 1.36 1.305 3.175 1.305 5.148v4.665a4.115 4.115 0 001.125 2.782.57.57 0 010 .757 64.107 64.107 0 00-2.25 1.988" fill="#000"/></svg>