<svg width="160" height="48" fill="none" xmlns="http://www.w3.org/2000/svg"><path d="M16.055 11.171h127.92v25.452H16.055V11.172z" fill="#fff"/><path d="M24.156 17.626h4.122v8.808h5.795v3.523h-9.917V17.626zm10.852 0h4.12v12.331h-4.12V17.626zm4.668 0h4.614l2.396 6.923 2.395-6.923h4.546l-5.004 12.42h-3.945l-5.002-12.42zm14.11 0h10.51v3.382h-6.459v1.25h6.024v2.978h-6.023v1.34h6.552v3.381H53.785V17.626z" fill="#E21836"/><path d="M69.27 17.626h3.857l4.386 5.443v-5.443h4.082v12.331h-3.66l-4.579-5.69v5.69H69.27V17.626z" fill="#000"/><path d="M86.602 17.538h4.087l5.197 12.42H91.41l-.65-1.653h-4.316l-.634 1.655h-4.404l5.196-12.422zm3.144 7.84l-1.126-2.995-1.128 2.995h2.254zm6.809-4.264h-3.628v-3.493h11.38v3.493h-3.63v8.843h-4.122v-8.843zm8.367-3.488h4.12v12.331h-4.12V17.626zm4.932 6.201v-.035c0-3.576 2.943-6.43 6.747-6.43 3.805 0 6.712 2.827 6.712 6.394v.036c0 3.575-2.942 6.43-6.747 6.43-3.804 0-6.712-2.82-6.712-6.395zm9.302 0v-.035c0-1.462-.998-2.784-2.59-2.784-1.592 0-2.553 1.304-2.553 2.748v.036c0 1.462.998 2.783 2.588 2.783s2.555-1.304 2.555-2.748zm4.58-6.201h3.857l4.387 5.443v-5.443h4.087v12.331h-3.66l-4.584-5.69v5.69h-4.087V17.626z" fill="#000"/><path d="M145 37.682H15V10.007h130v27.675zM17.733 34.95h124.532V12.735H17.733V34.95z" fill="#000"/><path d="M138.083 18.582a.973.973 0 011.659-.687.972.972 0 11-1.659.687zm1.83 0a.858.858 0 10-1.716 0 .858.858 0 001.716 0zm-1.261-.55h.458a.43.43 0 01.319.113.306.306 0 01.087.224.325.325 0 01-.223.32l.252.37h-.266l-.219-.334h-.18v.333h-.228v-1.026zm.456.499c.115 0 .176-.062.176-.147 0-.098-.07-.15-.181-.15h-.223v.303l.228-.006z" fill="#000"/></svg>