<svg width="160" height="48" fill="none" xmlns="http://www.w3.org/2000/svg"><path d="M16.552 30.788h-3.088l-2.282-4.43h-1.154v2.738h1.262v1.719H6v-1.719h1.396v-6.712H6v-1.718h6.31c1.96 0 3.034 1.288 3.034 2.819 0 1.154-.564 1.987-1.745 2.524l1.638 3.06h1.315v1.72zm-5.477-6.041c1.181 0 1.53-.645 1.53-1.182 0-.43-.241-1.154-1.235-1.154h-1.342v2.336h1.047zm8.941 4.349h1.181v-6.712h-1.181v-1.718h8.888v3.195H26.97v-1.477h-3.14v2.336h2.524v1.718H23.83v2.659h3.141v-1.504h1.934v3.222h-8.888v-1.719zm12.888 0h1.53v-6.712h-1.53v-1.718h5.29c1.826 0 3.088.349 4.135 1.369 1.02 1.02 1.45 2.336 1.45 3.705 0 2.632-1.611 5.048-4.833 5.048H32.93v-1.692h-.027zm5.182 0c2.014 0 2.954-1.288 2.954-3.302 0-2.175-1.074-3.383-3.034-3.383h-.913v6.685h.993z" fill="#B2292E"/><path d="M53.794 22.384h-1.181v-1.718h5.02v1.718H56.48l1.691 5.075h.027l1.692-5.075h-1.128v-1.718h4.27v1.718H61.85l-2.927 8.485h-2.04l-3.088-8.485zm12.7 6.712h1.182v-6.712h-1.182v-1.718h8.888v3.195h-1.934v-1.477h-3.141v2.336h2.524v1.718h-2.524v2.659h3.141v-1.504h1.934v3.222h-8.888v-1.719zm12.727 0h1.343v-6.712H79.22v-1.718h4.243l3.705 6.31h.027v-4.592H85.88v-1.718h4.538v1.718h-1.423v8.404H86.74l-4.323-7.438h-.027v5.72h1.262v1.718h-4.43v-1.692zm24.112-4.349h-1.772v-2.363h-1.53v6.686h1.53v1.718h-5.665V29.07h1.53v-6.686h-1.53v2.363H94.15v-4.055h9.183v4.055zm3.625-4.055h4.699v1.719h-.886v5.128c0 .994.295 1.665 1.315 1.665.859 0 1.396-.43 1.396-1.584v-5.236h-.832v-1.718h3.893v1.718h-1.262v5.665c0 2.363-2.067 2.873-3.49 2.873-1.987 0-3.679-.752-3.679-3.222v-5.316h-1.154v-1.692zm23.763 10.096h-3.088l-2.282-4.43h-1.155v2.738h1.262v1.719h-5.29v-1.719h1.397v-6.712h-1.397v-1.718h6.31c1.96 0 3.034 1.288 3.034 2.819 0 1.154-.563 1.987-1.745 2.524l1.638 3.06h1.316v1.72zm-5.478-6.041c1.182 0 1.531-.645 1.531-1.182 0-.43-.242-1.154-1.236-1.154h-1.342v2.336h1.047zm8.941 4.349h1.182v-6.712h-1.182v-1.718h8.888v3.195h-1.933v-1.477h-3.142v2.336h2.524v1.718h-2.524v2.659h3.142v-1.504h1.933v3.222h-8.888v-1.719zm13.05-1.745h1.718c-.027 1.101.671 1.826 1.557 1.826.618 0 1.128-.483 1.128-1.1 0-1.854-4.484-1.585-4.484-4.78 0-1.96 1.477-2.766 2.739-2.766.778 0 1.423.322 1.853.94h.026v-.832h1.692v3.06h-1.692c-.134-.912-.698-1.503-1.45-1.503-.59 0-.993.349-.993.832 0 1.638 4.672 1.262 4.672 4.833 0 2.417-1.853 3.008-2.927 3.008-.886 0-1.584-.323-2.014-.994h-.026v.86h-1.799V27.35zM48.37 15h-.59v19.547h.59V15z" fill="#000"/></svg>