<svg width="160" height="48" fill="none" xmlns="http://www.w3.org/2000/svg"><path d="M19.128 17.286l4.851 11.828h.292l4.851-11.828h3.059l-5.922 14.428h-4.337L16 17.286h3.128zm18.752 2.6V23.2h8.813v2.6H37.88v3.314h11.26v2.6H34.989V17.286h14.15v2.6H37.88zm15.152-2.6h9.244c2.6 0 4.337 1.728 4.337 4.328 0 2.315-1.5 3.929-3.78 4.157.208.229.403.486.514.686l3.266 5.257h-3.266l-3.67-5.914h-3.754v5.914h-2.89V17.286zm9.244 5.914c.862 0 1.446-.571 1.446-1.443v-.428c0-.872-.584-1.443-1.446-1.443h-6.353V23.2h6.353zm8.591 8.514V17.286h2.891v14.428h-2.89zM88.341 27.3c0-1.157-1.265-1.643-4.157-1.643-4.56 0-6.52-1.214-6.52-4.128 0-2.943 2.308-4.529 6.645-4.529 3.99 0 6.645 1.843 6.645 4.614h-2.905c0-1.214-1.502-2.014-3.754-2.014-2.46 0-3.753.657-3.753 1.929 0 1.1 1.154 1.528 3.892 1.528 4.768 0 6.784 1.3 6.784 4.243 0 3.057-2.419 4.7-6.937 4.7-4.156 0-6.922-1.843-6.922-4.614h2.891c0 1.214 1.613 2.014 4.045 2.014 2.628 0 4.046-.743 4.046-2.1zm9.383-4.1h8.66v-5.914h2.891v14.428h-2.891V25.8h-8.66v5.914h-2.892V17.286h2.892V23.2zm29.567 1.3c0 4.329-3.169 7.5-7.506 7.5-4.338 0-7.507-3.171-7.507-7.5 0-4.329 3.169-7.5 7.507-7.5 4.337 0 7.506 3.171 7.506 7.5zm-3.03 0c0-2.743-1.877-4.757-4.476-4.757-2.6 0-4.477 2.014-4.477 4.757s1.877 4.757 4.477 4.757c2.599 0 4.476-2.014 4.476-4.757zm9.049 7.214h-2.891V17.286h9.244c2.599 0 4.337 1.728 4.337 4.328 0 2.486-1.738 4.186-4.337 4.186h-6.353v5.914zm0-8.514h6.353c.862 0 1.446-.571 1.446-1.443v-.428c0-.872-.584-1.443-1.446-1.443h-6.353V23.2z" fill="#000"/></svg>