<svg width="160" height="48" fill="none" xmlns="http://www.w3.org/2000/svg"><path d="M86.341 17.132h.147c.879-.074 1.684-.806 1.831-1.758.147-.88-.44-1.612-1.319-1.759h-.293c-.879.074-1.685.806-1.831 1.759-.074.44.073.879.293 1.245.293.366.66.513 1.172.513z" fill="#000"/><path d="M127 31.637c0-2.344-1.172-4.542-2.198-6.447-.879-1.611-1.685-3.15-1.465-4.249.147-.806.733-1.245 1.612-1.318h.073c.073 0 .073-.074.147-.074.073 0 .073-.073.073-.073l.439-1.099c.074-.146.074-.22 0-.293 0-.073-.073-.073-.146-.146a.56.56 0 00-.366-.147 3.127 3.127 0 00-.806-.146c-1.246 0-2.857.44-4.176 3.81-.073.146-2.637 6.886-2.711 7.105-.293.806-1.025 1.759-2.491 1.759-.659 0-1.172-.22-1.465-.66-.073-.073-.073-.146-.146-.22-.074-.293-.147-.586-.074-.952 0-.146.074-.293.074-.366.073-.22.146-.513.293-.733 1.025-2.564 4.542-11.648 5.641-14.432.146-.366-.074-.66-.44-.66h-1.245c-.147 0-.293.074-.44.074a.887.887 0 00-.513.513c-.512 1.245-1.172 3.003-1.904 4.908a172.82 172.82 0 00-1.685 4.322c-.147-.293-.367-.512-.586-.805l-.66-.66c-1.025-.879-2.417-1.318-3.882-1.318-1.832 0-3.59.732-4.909 1.904l-.146.147c-.074 0-.074.073-.074.073-.879.806-1.611 1.905-2.051 3.004v.073c-.073.146-.073.293-.146.44l-.22.879c-.073.293-.073.512-.073.805 0 .806.073 1.539.366 2.272-.147.22-.293.366-.44.586-.513.44-1.172.805-1.831.805h-.22c-.293 0-.513-.073-.733-.146-.293-.073-.512-.293-.659-.513-.293-.44-.293-1.099 0-1.831.073-.22.513-1.319.88-2.345.292-.806.585-1.538.585-1.685 0-.073.074-.22.147-.366.073-.293.073-.66-.073-1.099a1.531 1.531 0 00-.293-.44 1.747 1.747 0 00-.806-.439c-.074-.073-.22-.073-.293-.073-.22-.073-.367-.147-.587-.22-.366-.146-2.197-1.026-2.197-2.637v-.22c0-.22-.074-.366-.22-.44h-.073c-.074 0-.147-.073-.22-.073H92.42c-.293 0-.512.147-.732.366-.073.074-.147.22-.22.294-.293.659-.586 1.538-.952 2.417-1.172 3.077-2.638 6.74-3.004 7.766 0 .073 0 .073-.073.146-.293.806-1.026 1.758-2.491 1.758-.66 0-1.172-.22-1.465-.659-.147-.22-.22-.586-.22-.952 0-.293.073-.587.22-.953.293-.66.806-2.051 1.392-3.59.586-1.391 1.099-2.93 1.538-3.956.147-.366-.073-.659-.44-.659H84.51c-.073 0-.146 0-.293.073-.293.074-.586.293-.805.513-.66.806-1.466 1.392-2.418 1.905-.952.44-1.905.733-2.857.88-.147-.367-.293-.733-.513-1.027v-.073c-.146-.22-.293-.366-.44-.586-1.098-1.319-2.71-1.978-4.542-1.978-.952 0-1.904.22-2.783.586.44-1.172.879-2.344 1.318-3.37.513-1.318 1.026-2.564 1.392-3.59a.467.467 0 000-.439c-.073-.366-.22-.44-.44-.44h-1.245c-.146 0-.293.074-.44.147-.146.073-.292.22-.439.366 0 .073-.073.073-.073.073a3330.244 3330.244 0 00-5.421 13.92 30.626 30.626 0 00-.66 1.685c-.293.806-1.025 1.758-2.49 1.758h-.367c-.44-.073-.879-.293-1.099-.586-.073-.073-.073-.147-.146-.22-.147-.293-.147-.586-.073-.952 0-.147.146-.44.22-.733.146-.44.292-.806.292-.806s.513-1.392 1.319-3.37c.073-.22.147-.44.293-.659v-.073a737.138 737.138 0 013.956-10.11c.44-1.172.88-2.198 1.099-2.857.22-.513.073-.806-.366-.806h-1.246c-.366 0-.806.293-.952.66-.147.366-1.465 3.809-2.93 7.618-1.905 4.909-4.103 10.55-4.323 11.209-.073.147-.073.22-.146.366-.22.367-.513.806-.953 1.026-.366.22-.806.366-1.392.366-.513 0-.952-.146-1.245-.44l-.22-.22c-.22-.292-.293-.732-.22-1.171.074-.367.586-1.759.586-1.832.367-.879.733-1.905 1.173-3.003 1.392-3.59 3.077-7.986 4.175-10.843.074 0 .074-.073.074-.146s-.074-.22-.147-.293c-.073-.074-.22-.074-.366-.074H57.11c-.146 0-.293.074-.44.074a.66.66 0 00-.439.44l-.073.072c-.293.806-.66 1.759-1.026 2.711-.44 1.026-.805 2.198-1.318 3.297-1.758 4.469-3.444 8.937-3.736 9.67-.074.22-.22.44-.367.66-.44.585-1.025 1.098-2.124 1.098-.367 0-.733-.073-1.026-.293-.147-.073-.293-.22-.44-.366a.56.56 0 01-.146-.366c-.073-.22-.073-.513-.073-.806.073-.367.44-1.392.512-1.539l2.565-6.666c.146-.367-.074-.66-.44-.66h-1.245c-.22 0-.44.074-.66.293-.073.074-.22.22-.22.367l-.293.659-.44 1.026c-.072-.147-.146-.22-.219-.367-.073-.146-.146-.22-.293-.366-.44-.44-.879-.879-1.392-1.172-.879-.513-1.978-.806-3.15-.806-2.857 0-5.494 1.758-6.813 4.322-.366.733-.586 1.466-.733 2.271-.293 1.832.22 3.59 1.319 4.909.366.44.733.732 1.172 1.025.073.074.147.074.293.147.88.513 1.978.806 3.077.806 1.831 0 3.59-.733 4.982-1.978.073.073.073.146.146.22 0 .073.074.073.074.146s.073.073.073.147l.146.146c.074.073.074.073.074.147l.22.22c.439.366 1.025.732 1.684.879h.073c.074 0 .147 0 .22.073h.806c.733 0 1.392-.147 1.978-.366.22-.074.44-.22.66-.367.073-.073.146-.073.22-.146.292-.22.512-.367.732-.66.073.074.146.22.293.293.586.66 1.465 1.026 2.417 1.173h.513c1.392 0 2.638-.513 3.59-1.466.366.44.806.806 1.319 1.026.586.293 1.245.44 1.978.44.366 0 .732-.074 1.025-.074 1.465-.293 2.71-1.245 3.444-2.637.073.073.073.146.146.22.073.073.073.146.147.22.073.073.146.22.22.293 1.098 1.318 2.71 1.978 4.541 1.978 2.491 0 4.836-1.392 6.3-3.444.66-.952 1.1-1.978 1.246-3.076.073-.294.073-.587.073-.88.22 0 .513-.073.733-.146 1.026-.22 1.978-.513 2.857-1.026 0 .073-.073.147-.073.22-.44 1.099-.806 1.978-.953 2.49-.586 1.466-.512 2.931.293 4.103.294.44.66.806 1.1 1.026.659.44 1.465.66 2.344.66 2.124 0 3.883-1.246 4.762-3.297.073-.293.293-.806.586-1.612.586-1.538 1.465-3.81 2.27-5.934.074-.22.147-.366.22-.586.733.879 1.612 1.538 2.565 1.905.073 0 .073.073.146.073.073.073.22.073.293.146-.44 1.246-1.172 3.224-1.319 3.444-.366.952-.44 1.831-.293 2.637.074.513.293 1.026.587 1.465.22.293.44.513.659.733.66.586 1.538.952 2.49.952h.88c.586-.073 1.245-.293 1.758-.513a5.854 5.854 0 001.538-1.099c.88.806 1.978 1.392 3.151 1.612.366.073.659.073 1.025.073.44 0 .953-.073 1.392-.146 1.246-.22 2.418-.806 3.37-1.612.073-.073.147-.146.293-.22.073.074.073.22.147.293.439.66 1.172 1.173 1.978 1.466.073 0 .073 0 .073.073.073 0 .073 0 .146.073.074 0 .074 0 .147.073h1.172c2.125 0 3.883-1.245 4.762-3.296.073-.147.806-2.052 1.465-3.737.22-.512.367-.952.513-1.318l.22.44c.293.512.513 1.025.806 1.611l.659 1.319c.659 1.318 1.245 2.71 1.245 4.029 0 3.883-2.637 4.615-3.443 4.688a1.244 1.244 0 00-1.025 1.026v.44c.146.512.586.952 1.172.952h.146c.66-.073 1.319-.293 1.978-.586 2.198-.88 3.883-2.93 3.883-6.447zm-15.531-5.934c-.22 1.612-1.245 3.004-2.564 3.81h-.073c-.733.44-1.466.659-2.271.659-.367 0-.733-.073-1.099-.146-.586-.22-1.099-.513-1.539-1.026a3.22 3.22 0 01-.732-1.685 3.514 3.514 0 010-1.245 4.982 4.982 0 01.586-1.759 6.448 6.448 0 011.611-1.831 4.606 4.606 0 012.711-.88c.659 0 1.245.147 1.758.44.293.22.586.44.879.733.147.146.22.293.293.44.293.512.44 1.171.44 1.83v.66zM69.858 30.1c-.66-.147-1.246-.513-1.612-1.026-.66-.806-.88-1.831-.733-2.93.073-.293.073-.513.147-.733.073-.22.22-.513.293-.733 0-.073.073-.073.073-.073.073-.073.073-.146.073-.22 0 0 0-.073.074-.073a4.78 4.78 0 011.099-1.318c.879-.806 1.977-1.246 3.15-1.246.513 0 1.025.073 1.465.293.44.22.806.513 1.099.88.66.805.879 1.83.732 2.93-.366 2.49-2.564 4.468-4.908 4.468-.293-.146-.586-.146-.952-.22zm-30.55.073A3.431 3.431 0 0136.671 29c-.073-.073-.146-.147-.146-.22-.513-.733-.733-1.685-.587-2.71.367-2.491 2.564-4.47 4.982-4.47 1.099 0 1.978.44 2.637 1.173.66.806.88 1.831.733 2.93 0 .22-.073.367-.146.586-.587 2.198-2.638 3.883-4.836 3.883z" fill="#000"/></svg>